<?xml version="1.0" encoding="utf-8"?>
<svg viewBox="0 0 101 221" fill="none" xmlns="http://www.w3.org/2000/svg">
  <path d="M 99.85 49.729 C 99.85 50.718 99.048 51.509 98.07 51.509 C 97.091 51.509 96.29 50.707 96.29 49.729 C 96.29 24.374 75.66 3.744 50.305 3.744 C 24.949 3.744 4.319 24.374 4.319 49.729 C 4.319 50.718 3.518 51.509 2.539 51.509 C 1.561 51.509 0.76 50.707 0.76 49.729 C 0.76 22.406 22.992 0.173 50.315 0.173 C 77.638 0.173 99.87 22.406 99.87 49.729 L 99.85 49.729 Z" fill="white" transform="matrix(1, 0, 0, 1, -2.842170943040401e-14, 0)"/>
  <path d="M 14.924 206.197 C -4.565 186.707 -4.565 154.998 14.924 135.508 C 34.414 116.019 66.123 116.019 85.612 135.508 C 105.102 154.998 105.102 186.707 85.612 206.197 C 66.123 225.687 34.414 225.687 14.924 206.197 Z M 83.257 137.864 C 65.066 119.673 35.471 119.673 17.285 137.864 C -0.906 156.055 -0.906 185.65 17.285 203.836 C 35.476 222.027 65.071 222.027 83.257 203.836 C 101.448 185.645 101.448 156.051 83.257 137.864 Z" fill="white" transform="matrix(1, 0, 0, 1, -2.842170943040401e-14, 0)"/>
  <path d="M 83.8 160.25 C 83.625 160.075 83.482 159.852 83.402 159.605 C 81.672 154.487 78.847 149.95 75.008 146.111 C 71.173 142.277 66.633 139.452 61.514 137.717 C 60.836 137.485 60.381 136.855 60.381 136.139 L 60.381 123.991 C 60.381 123.479 60.618 122.996 61.021 122.678 C 61.428 122.361 61.955 122.252 62.447 122.375 C 71.197 124.565 79.207 129.105 85.606 135.509 C 92.004 141.912 96.545 149.917 98.735 158.667 C 98.858 159.165 98.744 159.691 98.431 160.098 C 98.114 160.506 97.63 160.738 97.119 160.738 L 84.971 160.738 C 84.516 160.738 84.099 160.553 83.79 160.245 L 83.8 160.25 Z M 77.363 143.756 C 81.278 147.671 84.231 152.259 86.156 157.406 L 94.943 157.406 C 92.734 150.05 88.72 143.329 83.255 137.864 C 77.79 132.399 71.069 128.385 63.718 126.181 L 63.718 134.968 C 68.865 136.888 73.453 139.841 77.368 143.76 L 77.363 143.756 Z" fill="white" transform="matrix(1, 0, 0, 1, -2.842170943040401e-14, 0)"/>
  <path d="M 14.923 206.197 C 8.524 199.798 3.979 191.788 1.789 183.038 C 1.666 182.541 1.78 182.015 2.092 181.612 C 2.41 181.204 2.893 180.972 3.405 180.972 L 15.553 180.972 C 16.269 180.972 16.904 181.427 17.132 182.105 C 18.862 187.224 21.686 191.76 25.526 195.599 C 29.36 199.433 33.901 202.258 39.02 203.993 C 39.697 204.22 40.152 204.855 40.152 205.571 L 40.152 217.719 C 40.152 218.231 39.915 218.714 39.513 219.032 C 39.105 219.349 38.579 219.458 38.081 219.335 C 29.332 217.145 21.326 212.605 14.923 206.206 L 14.923 206.197 Z M 5.59 184.299 C 7.799 191.655 11.814 198.376 17.278 203.841 C 22.743 209.306 29.464 213.321 36.82 215.529 L 36.82 206.742 C 31.673 204.822 27.085 201.869 23.17 197.954 C 19.255 194.039 16.302 189.451 14.378 184.304 L 5.59 184.304 L 5.59 184.299 Z" fill="white" transform="matrix(1, 0, 0, 1, -2.842170943040401e-14, 0)"/>
  <path d="M 60.869 218.89 C 60.556 218.577 60.381 218.155 60.381 217.71 L 60.381 205.562 C 60.381 204.846 60.836 204.211 61.514 203.983 C 66.633 202.253 71.169 199.429 75.008 195.589 C 78.847 191.75 81.667 187.214 83.402 182.095 C 83.629 181.418 84.264 180.963 84.98 180.963 L 97.128 180.963 C 97.64 180.963 98.123 181.2 98.441 181.602 C 98.758 182.005 98.868 182.536 98.744 183.029 C 96.55 191.779 92.009 199.784 85.61 206.187 C 79.212 212.591 71.202 217.131 62.452 219.321 C 61.955 219.444 61.428 219.331 61.026 219.018 C 60.973 218.97 60.921 218.928 60.874 218.88 L 60.869 218.89 Z M 63.713 206.737 L 63.713 215.525 C 71.069 213.316 77.79 209.301 83.255 203.837 C 88.72 198.372 92.73 191.651 94.943 184.295 L 86.156 184.295 C 84.236 189.442 81.283 194.025 77.363 197.945 C 73.448 201.86 68.86 204.818 63.713 206.737 Z" fill="white" transform="matrix(1, 0, 0, 1, -2.842170943040401e-14, 0)"/>
  <path d="M 2.226 160.25 C 2.178 160.203 2.131 160.15 2.093 160.098 C 1.776 159.695 1.667 159.165 1.79 158.667 C 3.98 149.917 8.52 141.907 14.924 135.509 C 21.327 129.11 29.332 124.565 38.082 122.375 C 38.58 122.252 39.106 122.365 39.509 122.678 C 39.911 122.996 40.148 123.479 40.148 123.991 L 40.148 136.139 C 40.148 136.855 39.693 137.49 39.016 137.717 C 33.897 139.447 29.361 142.272 25.522 146.111 C 21.687 149.946 18.862 154.486 17.128 159.605 C 16.9 160.283 16.265 160.738 15.549 160.738 L 3.401 160.738 C 2.956 160.738 2.529 160.563 2.221 160.255 L 2.226 160.25 Z M 36.816 126.181 C 29.46 128.389 22.739 132.404 17.274 137.869 C 11.81 143.334 7.8 150.055 5.586 157.411 L 14.374 157.411 C 16.293 152.264 19.246 147.68 23.166 143.76 C 27.081 139.845 31.669 136.893 36.816 134.968 L 36.816 126.181 Z" fill="white" transform="matrix(1, 0, 0, 1, -2.842170943040401e-14, 0)"/>
  <path d="M 77.368 143.756 C 62.428 128.816 38.113 128.811 23.174 143.756 C 8.229 158.7 8.234 183.01 23.174 197.95 C 38.113 212.889 62.423 212.894 77.368 197.95 C 92.312 183.005 92.307 158.695 77.368 143.756 Z" fill="white" transform="matrix(1, 0, 0, 1, -2.842170943040401e-14, 0)"/>
  <path d="M 64.086 184.53 L 36.559 184.713 C 35.399 184.721 34.465 185.667 34.473 186.826 L 34.48 187.808 C 34.487 188.967 35.434 189.901 36.593 189.893 L 64.121 189.711 C 65.28 189.703 66.214 188.757 66.207 187.597 L 66.2 186.616 C 66.192 185.456 65.246 184.523 64.086 184.53 Z" fill="#110A1D" transform="matrix(1, 0, 0, 1, -2.842170943040401e-14, 0)"/>
  <path d="M 40.309 167.914 C 40.011 167.914 39.707 167.848 39.433 167.715 L 37.285 166.677 C 36.352 166.222 35.925 165.118 36.314 164.156 L 37.3 161.701 C 37.603 160.952 38.319 160.463 39.124 160.459 C 39.47 160.459 39.812 160.544 40.115 160.719 L 42.674 162.179 C 43.153 162.449 43.499 162.919 43.622 163.459 C 43.746 163.999 43.637 164.568 43.324 165.023 L 41.921 167.056 C 41.556 167.587 40.949 167.91 40.305 167.91 L 40.309 167.914 Z" fill="#110A1D" transform="matrix(1, 0, 0, 1, -2.842170943040401e-14, 0)"/>
  <path d="M 60.128 167.782 C 59.483 167.782 58.872 167.474 58.502 166.947 L 57.114 164.99 C 56.791 164.54 56.678 163.971 56.791 163.431 C 56.905 162.89 57.246 162.416 57.725 162.137 L 60.365 160.587 C 60.664 160.411 61.005 160.317 61.351 160.312 C 62.157 160.307 62.882 160.786 63.195 161.53 L 64.19 163.914 C 64.588 164.871 64.176 165.985 63.252 166.45 L 61.005 167.573 C 60.735 167.706 60.431 167.782 60.133 167.782 L 60.128 167.782 Z" fill="#110A1D" transform="matrix(1, 0, 0, 1, -2.842170943040401e-14, 0)"/>
  <path d="M 38.147 182.873 C 36.938 182.882 35.853 182.124 35.44 180.986 L 30.848 168.345 C 30.554 168.488 30.241 168.597 29.923 168.677 C 29.549 168.772 29.17 168.819 28.786 168.819 C 28.563 168.819 28.345 168.81 28.132 168.782 C 25.738 168.478 23.923 166.426 23.909 164.009 C 23.89 161.335 26.051 159.146 28.724 159.127 C 31.397 159.108 33.587 161.269 33.601 163.942 C 33.601 164.558 33.497 165.151 33.279 165.705 C 33.161 166.009 33.014 166.298 32.843 166.573 L 41.578 170.801 L 48.261 161.117 C 47.982 160.999 47.712 160.852 47.456 160.677 C 46.972 160.35 46.55 159.942 46.209 159.463 C 45.631 158.648 45.318 157.686 45.313 156.69 C 45.294 154.017 47.456 151.828 50.129 151.809 C 50.247 151.809 50.371 151.809 50.489 151.818 C 52.883 151.979 54.816 153.899 54.992 156.292 C 55.072 157.425 54.774 158.511 54.129 159.435 C 53.788 159.918 53.371 160.331 52.892 160.658 C 52.641 160.833 52.371 160.98 52.091 161.098 L 58.893 170.682 L 67.486 166.383 C 67.324 166.075 67.197 165.753 67.102 165.416 C 66.988 165.009 66.926 164.582 66.926 164.151 C 66.926 163.956 66.936 163.762 66.955 163.573 C 67.23 161.136 69.287 159.288 71.737 159.274 C 74.41 159.255 76.6 161.416 76.614 164.089 C 76.633 166.639 74.652 168.782 72.107 168.957 L 71.804 168.966 C 71.311 168.966 70.827 168.9 70.358 168.758 C 70.055 168.663 69.761 168.545 69.486 168.393 L 65.173 180.787 C 64.779 181.929 63.699 182.697 62.49 182.707 L 38.147 182.868 L 38.147 182.873 Z" fill="#110A1D" transform="matrix(1, 0, 0, 1, -2.842170943040401e-14, 0)"/>
  <path d="M 99.847 49.977 L 99.847 169.572 C 99.847 170.561 99.046 171.352 98.068 171.352 C 97.089 171.352 96.288 170.551 96.288 169.572 L 96.288 49.977 C 96.288 48.988 97.089 48.197 98.068 48.197 C 99.046 48.197 99.847 48.999 99.847 49.977 Z" fill="white" transform="matrix(1, 0, 0, 1, -2.842170943040401e-14, 0)"/>
  <path d="M 4.304 49.717 L 4.304 169.312 C 4.304 170.301 3.503 171.092 2.525 171.092 C 1.546 171.092 0.745 170.291 0.745 169.312 L 0.745 49.717 C 0.745 48.728 1.546 47.937 2.525 47.937 C 3.503 47.937 4.304 48.738 4.304 49.717 Z" fill="white" transform="matrix(1, 0, 0, 1, -2.842170943040401e-14, 0)"/>
</svg>